<?xml version="1.0" encoding="UTF-8" standalone="no"?><!DOCTYPE svg PUBLIC "-//W3C//DTD SVG 1.1//EN" "http://www.w3.org/Graphics/SVG/1.1/DTD/svg11.dtd"><svg width="100%" height="100%" viewBox="0 0 7393 1692" version="1.1" xmlns="http://www.w3.org/2000/svg" xmlns:xlink="http://www.w3.org/1999/xlink" xml:space="preserve" xmlns:serif="http://www.serif.com/" style="fill-rule:evenodd;clip-rule:evenodd;stroke-linejoin:round;stroke-miterlimit:2;"><rect id="Artboard1" x="0" y="0" width="7392.95" height="1691.51" style="fill:none;"/><clipPath id="_clip1"><rect id="Artboard11" serif:id="Artboard1" x="0" y="0" width="7392.95" height="1691.51"/></clipPath><g clip-path="url(#_clip1)"><g><path d="M1072.12,1120.1c3.906,-26.563 4.102,-51.954 0.586,-76.172c-3.515,-24.219 -9.57,-45.313 -18.164,-63.282c-8.594,-17.968 -19.141,-32.031 -31.641,-42.187c-12.5,-10.156 -25.781,-14.844 -39.843,-14.063c-8.594,1.563 -15.625,1.563 -21.094,0l-2.344,0c-15.625,2.344 -27.148,0.196 -34.57,-6.445c-7.422,-6.641 -11.524,-15.43 -12.305,-26.367c-57.031,93.75 -110.937,186.719 -161.719,278.906c-50.781,92.188 -97.656,182.031 -140.625,269.531l0,-1.171c-4.687,9.375 -12.5,10.546 -23.437,3.515c-10.938,-7.031 -22.07,-17.773 -33.398,-32.226c-11.329,-14.454 -20.704,-30.079 -28.125,-46.875c-7.422,-16.797 -9.18,-30.274 -5.274,-40.43c24.219,-62.5 55.078,-131.445 92.578,-206.836c37.5,-75.391 77.735,-152.344 120.703,-230.859c42.969,-78.516 87.5,-156.25 133.594,-233.204c46.094,-76.953 90.234,-147.851 132.422,-212.695c-43.75,28.906 -87.305,62.5 -130.664,100.781c-43.359,38.282 -84.961,78.907 -124.805,121.875c-39.844,42.969 -76.953,87.11 -111.328,132.422c-34.375,45.313 -64.453,89.063 -90.234,131.25c-25.782,42.188 -46.68,81.446 -62.696,117.774c-16.015,36.328 -25.195,67.383 -27.539,93.164c-1.562,13.281 -9.375,18.554 -23.437,15.82c-14.063,-2.734 -28.906,-10.547 -44.531,-23.437c-15.625,-12.891 -29.297,-29.688 -41.016,-50.391c-11.719,-20.703 -15.625,-42.383 -11.719,-65.039c2.344,-14.844 7.031,-29.297 14.063,-43.359c28.125,-57.813 61.133,-115.43 99.023,-172.852c37.891,-57.422 79.883,-112.5 125.977,-165.234c46.093,-52.735 95.508,-101.954 148.242,-147.657c52.734,-45.703 108.008,-85.742 165.82,-120.117c57.813,-34.375 117.383,-61.914 178.711,-82.617c61.328,-20.703 124.024,-32.617 188.086,-35.742l1.172,0c42.187,0 78.516,6.836 108.984,20.508c30.469,13.671 54.883,32.226 73.243,55.664c18.359,23.437 30.664,50.39 36.914,80.859c6.25,30.469 6.64,62.5 1.171,96.094c-1.562,10.937 -3.515,20.312 -5.859,28.125c-2.344,7.812 -4.687,15.625 -7.031,23.437c-15.625,43.75 -34.961,83.008 -58.008,117.774c-23.047,34.765 -48.633,65.625 -76.758,92.578c-28.125,26.953 -58.203,50.195 -90.234,69.726c-32.031,19.532 -64.063,35.938 -96.094,49.219c16.406,14.063 31.25,29.883 44.531,47.461c13.282,17.578 24.805,36.524 34.571,56.836c9.765,20.313 16.992,41.211 21.679,62.695c4.688,21.485 6.641,42.774 5.86,63.868c-10.938,77.343 -38.086,148.242 -81.446,212.695c-43.359,64.453 -97.851,119.726 -163.476,165.82c-65.625,46.094 -140.235,81.641 -223.828,106.641c-83.594,25 -170.703,37.109 -261.328,36.328c-47.657,-0.781 -92.579,-8.008 -134.766,-21.68c-42.188,-13.672 -78.32,-32.617 -108.398,-56.836c-30.079,-24.218 -52.735,-52.343 -67.969,-84.375c-15.235,-32.031 -19.727,-66.406 -13.477,-103.125c3.906,-25 15.235,-52.343 33.985,-82.031c18.75,-29.687 41.796,-57.812 69.14,-84.375c8.594,0 22.071,1.953 40.43,5.859c18.359,3.907 36.914,8.789 55.664,14.649c18.75,5.859 35.352,12.305 49.805,19.336c14.453,7.031 22.07,13.672 22.851,19.922c-35.937,23.437 -62.5,45.703 -79.687,66.797c-17.188,21.093 -27.735,40.625 -31.641,58.593c-3.125,18.75 -0.391,36.719 8.203,53.907c8.594,17.187 21.289,32.031 38.086,44.531c16.797,12.5 37.305,22.461 61.524,29.883c24.218,7.421 50.39,11.132 78.515,11.132c59.375,0 118.75,-9.375 178.125,-28.125c59.375,-18.75 113.867,-45.703 163.477,-80.859c49.609,-35.156 91.797,-77.539 126.562,-127.148c34.766,-49.61 56.836,-105.664 66.211,-168.164Zm167.578,-772.266c-24.218,0.781 -49.023,4.687 -74.414,11.719c-25.39,7.031 -51.367,17.187 -77.929,30.468c10.156,7.032 20.312,15.821 30.468,26.368c10.157,10.546 18.75,22.07 25.782,34.57c7.031,12.5 11.718,25.586 14.062,39.258c2.344,13.672 0.391,26.758 -5.859,39.258c-36.719,51.562 -72.266,103.32 -106.641,155.273c-34.375,51.953 -68.359,104.492 -101.953,157.617l9.375,-4.687c17.969,-4.688 42.578,-14.258 73.828,-28.711c31.25,-14.453 63.672,-33.789 97.266,-58.008c33.593,-24.219 66.211,-53.125 97.851,-86.719c31.641,-33.594 57.227,-72.265 76.758,-116.015c5.469,-13.282 10.352,-26.758 14.649,-40.43c4.296,-13.672 7.617,-27.539 9.96,-41.602c2.344,-15.625 3.125,-30.859 2.344,-45.703c-0.781,-14.844 -4.297,-27.734 -10.547,-38.672c-6.25,-10.937 -15.429,-19.531 -27.539,-25.781c-12.109,-6.25 -27.929,-8.984 -47.461,-8.203Z" style="fill-rule:nonzero;"/><path d="M1840.87,1001.74c-0.781,4.688 -3.711,8.399 -8.789,11.133c-5.078,2.734 -11.133,4.687 -18.164,5.859c-7.031,1.172 -14.258,1.758 -21.68,1.758c-7.421,0 -13.867,-1.172 -19.336,-3.515c10.938,7.031 21.094,15.234 30.469,24.609c9.375,9.375 17.188,19.726 23.438,31.055c6.25,11.328 10.351,22.851 12.304,34.57c1.954,11.719 0.586,23.047 -4.101,33.984c-3.125,5.469 -6.641,11.524 -10.547,18.164c-3.906,6.641 -7.813,13.477 -11.719,20.508c-8.594,14.844 -17.383,30.86 -26.367,48.047c-8.984,17.188 -17.383,33.984 -25.195,50.391c-7.813,16.406 -14.649,31.836 -20.508,46.289c-5.859,14.453 -9.57,26.758 -11.133,36.914c0,1.562 -0.586,2.734 -1.758,3.515c-1.172,0.782 -2.148,1.563 -2.929,2.344l8.203,0c23.437,-7.812 46.093,-20.703 67.968,-38.672c21.875,-17.968 43.165,-38.476 63.868,-61.523c20.703,-23.047 40.625,-47.656 59.765,-73.828c19.141,-26.172 37.305,-51.367 54.492,-75.586c6.25,-6.25 10.938,-11.719 14.063,-16.406c3.125,-4.688 6.25,-9.766 9.375,-15.235c3.125,-3.906 8.984,-4.883 17.578,-2.93c8.594,1.954 16.797,5.665 24.609,11.133c7.813,5.469 14.063,11.914 18.75,19.336c4.688,7.422 4.688,13.867 0,19.336l-33.984,46.875l0,1.172c-33.594,46.094 -68.555,91.602 -104.883,136.523c-36.328,44.922 -76.758,85.352 -121.289,121.29c-7.031,6.25 -15.82,13.085 -26.367,20.507c-10.547,7.422 -22.266,14.453 -35.156,21.094c-12.891,6.641 -26.758,12.109 -41.602,16.406c-14.844,4.297 -30.078,6.055 -45.703,5.274c-37.5,-3.125 -63.867,-16.406 -79.101,-39.844c-15.235,-23.437 -20.899,-52.734 -16.993,-87.891c-35.156,32.813 -70.703,61.133 -106.64,84.961c-35.938,23.828 -70.313,36.133 -103.125,36.914c-29.688,-3.125 -53.321,-11.523 -70.899,-25.195c-17.578,-13.672 -30.664,-29.883 -39.258,-48.633c-8.593,-18.75 -13.476,-38.867 -14.648,-60.351c-1.172,-21.485 -0.586,-41.602 1.758,-60.352c3.125,-17.187 6.64,-31.25 10.547,-42.187c7.812,-28.907 20.703,-60.547 38.672,-94.922c17.968,-34.375 39.453,-68.75 64.453,-103.125c25,-34.375 52.539,-67.578 82.617,-99.61c30.078,-32.031 61.914,-60.546 95.508,-85.546c33.593,-25 67.773,-44.922 102.539,-59.766c34.765,-14.844 69.336,-22.266 103.711,-22.266c10.156,0 19.922,0.782 29.297,2.344c9.375,1.563 19.531,3.906 30.468,7.031c18.75,6.25 33.008,16.211 42.774,29.883c9.765,13.672 16.406,29.688 19.922,48.047c3.515,18.359 4.687,37.891 3.515,58.594c-1.172,20.703 -4.101,41.211 -8.789,61.523Zm-137.109,0c7.812,-3.906 16.992,-4.687 27.539,-2.344c10.547,2.344 21.289,6.641 32.226,12.891c-3.906,-3.906 -5.078,-8.203 -3.515,-12.891l1.172,-17.578c0.781,-7.812 1.172,-16.015 1.172,-24.609c0,-8.594 -1.172,-16.602 -3.516,-24.024c-2.344,-7.421 -6.25,-13.476 -11.719,-18.164c-5.469,-4.687 -12.89,-7.421 -22.265,-8.203c-28.907,-0.781 -58.594,9.571 -89.063,31.055c-30.469,21.484 -59.766,48.633 -87.891,81.445c-28.125,32.813 -53.71,67.969 -76.757,105.469c-23.047,37.5 -41.211,71.484 -54.493,101.953c-3.906,8.594 -7.812,19.336 -11.718,32.227c-3.907,12.89 -6.641,25.586 -8.203,38.086c-1.563,8.593 -2.344,16.797 -2.344,24.609c0,7.813 1.758,14.453 5.273,19.922c3.516,5.469 8.789,8.984 15.821,10.547c7.031,1.562 16.796,0.781 29.296,-2.344c11.719,-3.125 26.563,-12.109 44.532,-26.953c17.968,-14.844 36.914,-32.227 56.836,-52.149c19.922,-19.921 39.453,-41.21 58.593,-63.867c19.141,-22.656 35.352,-42.968 48.633,-60.937c11.719,-23.438 22.461,-46.289 32.227,-68.555c9.765,-22.266 16.601,-41.211 20.508,-56.836l-2.344,-18.75Z" style="fill-rule:nonzero;"/><path d="M2309.62,863.455c32.813,-20.313 65.625,-36.133 98.438,-47.461c32.812,-11.328 62.89,-15.039 90.234,-11.133c24.219,3.906 43.945,11.328 59.18,22.266c15.234,10.937 26.758,24.609 34.57,41.015c7.813,16.407 12.109,34.571 12.891,54.493c0.781,19.921 -0.782,40.82 -4.688,62.695c-6.25,36.719 -16.797,71.875 -31.64,105.469c-21.875,48.437 -49.805,95.898 -83.789,142.382c-33.985,46.485 -71.094,88.477 -111.329,125.977c-40.234,37.5 -82.617,68.555 -127.148,93.164c-44.531,24.609 -88.281,39.258 -131.25,43.945c-27.344,-0.781 -50.586,-5.859 -69.727,-15.234c-19.14,-9.375 -34.179,-21.484 -45.117,-36.328l-5.859,23.437c-3.125,8.594 -11.328,12.5 -24.61,11.719c-13.281,-0.781 -27.148,-4.492 -41.601,-11.133c-14.453,-6.64 -27.344,-15.039 -38.672,-25.195c-11.328,-10.156 -16.602,-20.312 -15.82,-30.469c10.156,-47.656 24.804,-95.703 43.945,-144.14c19.141,-48.438 41.211,-96.875 66.211,-145.313c25,-48.437 51.953,-96.875 80.859,-145.312c28.907,-48.438 57.813,-96.485 86.719,-144.141l46.875,-75c17.969,-29.687 35.742,-59.961 53.32,-90.82c17.579,-30.86 34.375,-61.133 50.391,-90.821c16.016,-29.687 30.859,-58.398 44.531,-86.132c13.672,-27.735 25.196,-53.321 34.571,-76.758c12.5,-6.25 27.148,-6.055 43.945,0.586c16.797,6.64 32.031,16.992 45.703,31.054c13.672,14.063 24.023,30.274 31.055,48.633c7.031,18.36 7.031,36.133 0,53.321c-5.469,11.718 -14.649,28.515 -27.539,50.39c-12.891,21.875 -27.539,46.289 -43.946,73.242c-16.406,26.953 -33.789,55.078 -52.148,84.375c-18.359,29.297 -36.133,57.227 -53.32,83.789l-15.235,23.438Zm-135.937,213.281c-17.969,28.906 -35.157,58.399 -51.563,88.477c-16.406,30.078 -32.031,60.351 -46.875,90.82c-1.562,6.25 -2.344,10.938 -2.344,14.063c-3.125,18.75 -2.539,36.132 1.758,52.148c4.297,16.016 16.211,24.805 35.742,26.367c17.188,1.563 37.11,-3.906 59.766,-16.406c22.656,-12.5 46.094,-29.492 70.313,-50.977c24.218,-21.484 48.437,-46.289 72.656,-74.414c24.219,-28.125 46.289,-56.445 66.211,-84.961c19.922,-28.515 36.523,-56.445 49.804,-83.789c13.282,-27.343 21.875,-51.172 25.782,-71.484c3.906,-24.219 -3.516,-36.719 -22.266,-37.5c-17.969,-0.781 -38.086,2.344 -60.351,9.375c-22.266,7.031 -44.922,17.187 -67.969,30.469c-23.047,13.281 -45.899,29.297 -68.555,48.047c-22.656,18.75 -43.359,38.671 -62.109,59.765Z" style="fill-rule:nonzero;"/><path d="M2908.44,863.455c32.813,-20.313 65.625,-36.133 98.438,-47.461c32.812,-11.328 62.89,-15.039 90.234,-11.133c24.219,3.906 43.946,11.328 59.18,22.266c15.234,10.937 26.758,24.609 34.57,41.015c7.813,16.407 12.11,34.571 12.891,54.493c0.781,19.921 -0.781,40.82 -4.688,62.695c-6.25,36.719 -16.797,71.875 -31.64,105.469c-21.875,48.437 -49.805,95.898 -83.789,142.382c-33.985,46.485 -71.094,88.477 -111.328,125.977c-40.235,37.5 -82.618,68.555 -127.149,93.164c-44.531,24.609 -88.281,39.258 -131.25,43.945c-27.344,-0.781 -50.586,-5.859 -69.726,-15.234c-19.141,-9.375 -34.18,-21.484 -45.118,-36.328l-5.859,23.437c-3.125,8.594 -11.328,12.5 -24.609,11.719c-13.282,-0.781 -27.149,-4.492 -41.602,-11.133c-14.453,-6.64 -27.344,-15.039 -38.672,-25.195c-11.328,-10.156 -16.601,-20.312 -15.82,-30.469c10.156,-47.656 24.805,-95.703 43.945,-144.14c19.141,-48.438 41.211,-96.875 66.211,-145.313c25,-48.437 51.953,-96.875 80.859,-145.312c28.907,-48.438 57.813,-96.485 86.719,-144.141l46.875,-75c17.969,-29.687 35.742,-59.961 53.321,-90.82c17.578,-30.86 34.375,-61.133 50.39,-90.821c16.016,-29.687 30.86,-58.398 44.531,-86.132c13.672,-27.735 25.196,-53.321 34.571,-76.758c12.5,-6.25 27.148,-6.055 43.945,0.586c16.797,6.64 32.031,16.992 45.703,31.054c13.672,14.063 24.024,30.274 31.055,48.633c7.031,18.36 7.031,36.133 0,53.321c-5.469,11.718 -14.649,28.515 -27.539,50.39c-12.891,21.875 -27.539,46.289 -43.946,73.242c-16.406,26.953 -33.789,55.078 -52.148,84.375c-18.359,29.297 -36.133,57.227 -53.32,83.789l-15.235,23.438Zm-135.937,213.281c-17.969,28.906 -35.156,58.399 -51.563,88.477c-16.406,30.078 -32.031,60.351 -46.875,90.82c-1.562,6.25 -2.343,10.938 -2.343,14.063c-3.125,18.75 -2.539,36.132 1.757,52.148c4.297,16.016 16.211,24.805 35.743,26.367c17.187,1.563 37.109,-3.906 59.765,-16.406c22.656,-12.5 46.094,-29.492 70.313,-50.977c24.218,-21.484 48.437,-46.289 72.656,-74.414c24.219,-28.125 46.289,-56.445 66.211,-84.961c19.922,-28.515 36.523,-56.445 49.805,-83.789c13.281,-27.343 21.875,-51.172 25.781,-71.484c3.906,-24.219 -3.516,-36.719 -22.266,-37.5c-17.969,-0.781 -38.086,2.344 -60.351,9.375c-22.266,7.031 -44.922,17.187 -67.969,30.469c-23.047,13.281 -45.899,29.297 -68.555,48.047c-22.656,18.75 -43.359,38.671 -62.109,59.765Z" style="fill-rule:nonzero;"/><path d="M3647.9,1012.28c-46.875,70.313 -102.148,128.906 -165.82,175.781c-63.672,46.875 -131.836,81.641 -204.492,104.297c-2.344,21.094 -0.977,41.016 4.102,59.766c5.078,18.75 16.601,30.078 34.57,33.984l-2.344,-1.172c14.844,3.907 33.008,2.735 54.492,-3.515c21.485,-6.25 44.922,-17.383 70.313,-33.399c25.39,-16.015 52.148,-36.914 80.273,-62.695c28.125,-25.781 56.25,-56.25 84.375,-91.406c14.844,-18.75 29.102,-38.086 42.774,-58.008c13.672,-19.922 26.757,-38.867 39.257,-56.836c8.594,-10.156 18.165,-15.625 28.711,-16.406c10.547,-0.782 19.532,1.757 26.954,7.617c7.421,5.859 12.109,14.062 14.062,24.609c1.953,10.547 -1.758,22.461 -11.133,35.742l-29.297,42.188c-25,35.156 -55.273,74.023 -90.82,116.601c-35.547,42.579 -75.977,83.79 -121.289,123.633c-26.563,21.875 -52.344,38.867 -77.344,50.977c-25,12.109 -48.047,21.094 -69.14,26.953c-21.094,5.859 -40.039,9.375 -56.836,10.547c-16.797,1.172 -29.883,1.758 -39.258,1.758c-60.938,0 -104.883,-17.578 -131.836,-52.735c-26.953,-35.156 -36.524,-83.203 -28.711,-144.14c7.031,-53.125 24.023,-105.078 50.977,-155.86c26.953,-50.781 65.039,-105.859 114.257,-165.234c17.188,-19.531 38.672,-40.43 64.453,-62.695c25.782,-22.266 53.907,-42.774 84.375,-61.524c30.469,-18.75 62.305,-33.984 95.508,-45.703c33.203,-11.719 65.039,-17.187 95.508,-16.406c32.031,0.781 56.25,11.523 72.656,32.226c16.407,20.703 21.485,48.633 15.235,83.789c-2.344,15.625 -7.227,31.446 -14.649,47.461c-7.422,16.016 -17.773,33.008 -31.054,50.977l1.171,-1.172Zm-60.937,-96.094c-28.125,5.469 -55.859,17.969 -83.203,37.5c-27.344,19.532 -53.125,42.578 -77.344,69.141c-24.219,26.562 -46.484,54.883 -66.797,84.961c-20.312,30.078 -37.109,58.398 -50.39,84.961c55.468,-22.656 107.031,-53.321 154.687,-91.992c47.656,-38.672 88.281,-84.961 121.875,-138.868l0,1.172c4.688,-6.25 8.008,-12.5 9.961,-18.75c1.953,-6.25 3.711,-11.718 5.273,-16.406c1.563,-10.937 -3.125,-14.844 -14.062,-11.719Z" style="fill-rule:nonzero;"/><path d="M3997.12,855.252c-9.375,14.844 -22.265,35.156 -38.672,60.937c-16.406,25.782 -34.179,54.492 -53.32,86.133c-19.141,31.641 -38.867,64.844 -59.18,99.609c-20.312,34.766 -39.062,68.36 -56.25,100.782c-17.187,32.422 -31.64,62.304 -43.359,89.648c-11.719,27.344 -18.75,49.219 -21.094,65.625l-3.515,9.375l8.203,0c22.656,-7.812 44.922,-20.508 66.797,-38.086c21.875,-17.578 42.968,-37.5 63.281,-59.765c20.312,-22.266 39.844,-46.094 58.594,-71.485c18.75,-25.39 36.718,-50.195 53.906,-74.414l-1.172,0c4.687,-7.031 9.766,-13.867 15.234,-20.508c5.469,-6.64 10.547,-13.086 15.235,-19.336c3.125,-4.687 8.593,-5.859 16.406,-3.515c7.812,2.344 15.43,6.25 22.852,11.719c7.421,5.468 13.281,11.914 17.578,19.335c4.297,7.422 4.882,13.868 1.757,19.336l-38.671,52.735c-32.032,44.531 -66.602,89.648 -103.711,135.351c-37.11,45.703 -76.368,85.743 -117.774,120.118c-7.031,6.25 -16.015,13.085 -26.953,20.507c-10.937,7.422 -23.047,14.258 -36.328,20.508c-13.281,6.25 -27.344,11.524 -42.188,15.82c-14.843,4.297 -29.687,6.446 -44.531,6.446c-17.187,-0.781 -31.25,-5.078 -42.187,-12.891c-10.938,-7.812 -19.336,-18.164 -25.196,-31.055c-5.859,-12.89 -9.375,-27.734 -10.546,-44.531c-1.172,-16.797 -0.196,-35.351 2.929,-55.664c1.563,-8.594 3.516,-17.773 5.86,-27.539c2.343,-9.766 5.078,-18.555 8.203,-26.367c23.437,-78.125 56.054,-154.102 97.851,-227.93c41.797,-73.828 84.961,-146.679 129.492,-218.554l63.282,-98.438c17.968,-29.687 35.742,-59.961 53.32,-90.82c17.578,-30.86 34.375,-61.133 50.391,-90.821c16.015,-29.687 30.859,-58.398 44.531,-86.132c13.672,-27.735 25.195,-53.321 34.57,-76.758c12.5,-6.25 27.149,-6.055 43.946,0.586c16.796,6.64 32.031,16.992 45.703,31.054c13.672,14.063 24.023,30.274 31.054,48.633c7.032,18.36 7.032,36.133 0,53.321c-5.468,11.718 -14.648,28.515 -27.539,50.39c-12.89,21.875 -27.734,46.485 -44.531,73.828c-16.797,27.344 -34.375,55.664 -52.734,84.961c-18.36,29.297 -35.743,56.836 -52.149,82.617l-9.375,15.235Z" style="fill-rule:nonzero;"/><path d="M4306.49,863.455c32.813,-20.313 65.625,-36.133 98.438,-47.461c32.812,-11.328 62.89,-15.039 90.234,-11.133c24.219,3.906 43.945,11.328 59.18,22.266c15.234,10.937 26.758,24.609 34.57,41.015c7.813,16.407 12.109,34.571 12.891,54.493c0.781,19.921 -0.782,40.82 -4.688,62.695c-6.25,36.719 -16.797,71.875 -31.64,105.469c-21.875,48.437 -49.805,95.898 -83.789,142.382c-33.985,46.485 -71.094,88.477 -111.329,125.977c-40.234,37.5 -82.617,68.555 -127.148,93.164c-44.531,24.609 -88.281,39.258 -131.25,43.945c-27.344,-0.781 -50.586,-5.859 -69.727,-15.234c-19.14,-9.375 -34.179,-21.484 -45.117,-36.328l-5.859,23.437c-3.125,8.594 -11.328,12.5 -24.61,11.719c-13.281,-0.781 -27.148,-4.492 -41.601,-11.133c-14.453,-6.64 -27.344,-15.039 -38.672,-25.195c-11.328,-10.156 -16.602,-20.312 -15.82,-30.469c10.156,-47.656 24.804,-95.703 43.945,-144.14c19.141,-48.438 41.211,-96.875 66.211,-145.313c25,-48.437 51.953,-96.875 80.859,-145.312c28.907,-48.438 57.813,-96.485 86.719,-144.141l46.875,-75c17.969,-29.687 35.742,-59.961 53.32,-90.82c17.579,-30.86 34.375,-61.133 50.391,-90.821c16.016,-29.687 30.859,-58.398 44.531,-86.132c13.672,-27.735 25.196,-53.321 34.571,-76.758c12.5,-6.25 27.148,-6.055 43.945,0.586c16.797,6.64 32.031,16.992 45.703,31.054c13.672,14.063 24.023,30.274 31.055,48.633c7.031,18.36 7.031,36.133 0,53.321c-5.469,11.718 -14.649,28.515 -27.539,50.39c-12.891,21.875 -27.539,46.289 -43.946,73.242c-16.406,26.953 -33.789,55.078 -52.148,84.375c-18.359,29.297 -36.133,57.227 -53.32,83.789l-15.235,23.438Zm-135.937,213.281c-17.969,28.906 -35.157,58.399 -51.563,88.477c-16.406,30.078 -32.031,60.351 -46.875,90.82c-1.562,6.25 -2.344,10.938 -2.344,14.063c-3.125,18.75 -2.539,36.132 1.758,52.148c4.297,16.016 16.211,24.805 35.742,26.367c17.188,1.563 37.11,-3.906 59.766,-16.406c22.656,-12.5 46.094,-29.492 70.313,-50.977c24.218,-21.484 48.437,-46.289 72.656,-74.414c24.219,-28.125 46.289,-56.445 66.211,-84.961c19.922,-28.515 36.523,-56.445 49.804,-83.789c13.282,-27.343 21.875,-51.172 25.782,-71.484c3.906,-24.219 -3.516,-36.719 -22.266,-37.5c-17.969,-0.781 -38.086,2.344 -60.351,9.375c-22.266,7.031 -44.922,17.187 -67.969,30.469c-23.047,13.281 -45.899,29.297 -68.555,48.047c-22.656,18.75 -43.359,38.671 -62.109,59.765Z" style="fill-rule:nonzero;"/></g><path d="M6883.56,1288.11c21.603,-11.623 66.274,42.74 45.367,69.453c-20.906,26.714 -42.586,50.717 -65.041,72.011c-22.455,21.293 -45.684,38.328 -69.688,51.104c-24.003,12.776 -48.781,18.39 -74.333,16.841c-27.875,-2.323 -49.749,-20.132 -65.623,-53.427c-15.873,-33.295 -27.681,-74.333 -35.424,-123.115c-58.073,41.039 -115.952,78.012 -173.638,110.92c-57.686,32.908 -114.017,59.428 -168.992,79.56c-11.615,6.968 -22.842,9.485 -33.683,7.549c-10.84,-1.936 -19.164,-6.582 -24.971,-13.938c-5.807,-7.355 -7.937,-16.453 -6.388,-27.294c1.549,-10.84 8.13,-21.293 19.745,-31.359c58.847,-27.101 120.017,-60.202 183.51,-99.305c63.493,-39.102 128.148,-82.657 193.964,-130.664c-1.549,-31.746 -2.71,-63.299 -3.485,-94.659c-0.774,-31.359 -0.993,-58.458 -1.161,-87.69c-0.411,-71.407 2.012,-135.743 32.521,-184.672c8.476,-13.594 20.132,-21.874 34.844,-33.101c14.711,-11.228 29.036,-16.842 42.974,-16.842c19.357,0 34.069,13.551 44.135,40.651c-0.774,102.983 -0.774,189.705 0,260.167c58.073,-48.007 113.823,-96.594 167.25,-145.763c53.427,-49.168 102.983,-97.369 148.667,-144.601l1.161,-2.323c10.066,-8.518 18.39,-10.066 24.971,-4.646c6.582,5.42 11.228,14.324 13.938,26.713c2.71,12.389 3.678,25.94 2.904,40.651c-0.775,14.712 -3.872,27.101 -9.292,37.167c-48.007,46.458 -101.241,96.208 -159.701,149.247c-58.46,53.04 -120.211,105.5 -185.252,157.378c5.42,88.271 16.647,132.794 33.682,133.568c6.969,0.774 14.905,-1.742 23.81,-7.55c8.904,-5.807 18.244,-13.93 29.036,-23.229c9.39,-8.09 24.267,-23.461 34.193,-28.802Z" style="fill-rule:nonzero;"/><path d="M6076.82,68.475l1098.33,21.527c41.899,0.352 79.472,17.942 106.852,45.479c27.302,27.459 44.535,65.069 44.647,106.851c0,0 33.148,1389.91 33.148,1389.91l33.148,-1389.91c0.161,-60.196 -23.955,-114.943 -63.516,-154.278c-39.488,-39.262 -94.196,-63.19 -154.279,-62.685c0,0 -1098.33,21.527 -1098.33,21.527c-5.955,0 -10.79,4.834 -10.79,10.79c0,5.955 4.835,10.789 10.79,10.789Z"/><path d="M4988.17,1615.75l302.963,-110.93c7.381,-2.652 15.461,-2.61 22.813,0.119c150.956,55.023 314.151,57.394 463.823,11.423c146.056,-44.86 279.14,-136.03 375.17,-269.504c116.455,-161.744 156.272,-355.54 126.576,-538.023c-29.559,-181.645 -128.332,-352.019 -289.319,-467.96c-62.634,-45.108 -130.14,-78.583 -199.91,-100.947c-72.135,-23.122 -146.729,-34.212 -220.876,-33.882c0,0 -1.561,0.009 -1.561,0.009c0,0 -647.373,4.711 -1499.56,7.001c-693.663,1.864 -1523.02,3.221 -2249.33,1.587c-226.68,-0.51 -443.323,-0.853 -642.661,-3.345c-421.639,-5.273 -765.666,-15.165 -964,-19.093c-20.011,-0.45 -39.728,2.824 -58.038,9.915c-18.515,7.171 -35.777,17.685 -50.427,31.651c-14.816,14.124 -26.726,30.738 -34.851,49.101c-8.217,18.569 -13.046,38.67 -13.541,59.364l-13.331,557.253c0,7.926 -6.434,14.36 -14.359,14.36c-7.926,0 -14.36,-6.434 -14.36,-14.36c0,0 -13.331,-557.253 -13.331,-557.253c-0.675,-28.265 4.557,-56.013 14.555,-81.883c10.08,-26.081 25.491,-50.011 45.158,-70.642c19.826,-20.796 43.533,-36.971 69.316,-48.358c25.982,-11.475 54.262,-17.53 83.209,-18.18c198.333,-3.929 542.359,-13.821 963.997,-19.094c199.338,-2.492 415.983,-2.835 642.664,-3.345c726.316,-1.634 1555.67,-0.276 2249.33,1.588c852.185,2.289 1499.56,7.001 1499.56,7.001c0,0 1.561,0.008 1.61,0.008c84.119,0.545 168.548,14.041 250.039,41.148c78.528,26.122 154.377,64.734 224.565,116.456c179.308,132.135 288.426,324.434 319.355,528.722c30.803,203.45 -15.633,418.711 -147.248,597.266c-107.755,146.079 -255.752,245.127 -417.568,292.732c-160.738,47.288 -335.019,44.012 -496.468,-14.218l-335.763,118.436c-20.864,6.779 -41.598,-8.326 -41.542,-30.264l14.105,-357.697c-102.814,-135.975 -157.529,-300.236 -159.788,-466.612c-2.253,-165.877 47.434,-333.839 153.413,-477.509c17.553,-23.797 36.186,-46.325 55.805,-67.549c20.018,-21.654 41.038,-41.969 62.954,-60.906c9.13,-7.985 23.026,-7.055 31.012,2.075c7.985,9.131 7.055,23.027 -2.075,31.012c-20.455,18.107 -40.047,37.505 -58.682,58.152c-18.254,20.226 -35.565,41.668 -51.844,64.295c-97.778,135.902 -142.69,293.898 -138.73,449.418c4.025,158.089 58.719,313.596 159.872,440.494c4.213,5.351 6.399,12.019 6.171,18.826l-8.872,322.142Z"/></g></svg>