<?xml version="1.0" encoding="UTF-8" standalone="no"?><!DOCTYPE svg PUBLIC "-//W3C//DTD SVG 1.1//EN" "http://www.w3.org/Graphics/SVG/1.1/DTD/svg11.dtd"><svg width="100%" height="100%" viewBox="0 0 1772 342" version="1.1" xmlns="http://www.w3.org/2000/svg" xmlns:xlink="http://www.w3.org/1999/xlink" xml:space="preserve" xmlns:serif="http://www.serif.com/" style="fill-rule:evenodd;clip-rule:evenodd;stroke-linejoin:round;stroke-miterlimit:2;"><rect id="Artboard1" x="0" y="0" width="1771.65" height="341.339" style="fill:none;"/><clipPath id="_clip1"><rect x="0" y="0" width="1771.65" height="341.339"/></clipPath><g clip-path="url(#_clip1)"><path d="M290.742,233.54c0.822,-5.591 0.863,-10.935 0.123,-16.033c-0.74,-5.098 -2.014,-9.537 -3.823,-13.32c-1.809,-3.782 -4.029,-6.742 -6.66,-8.879c-2.631,-2.138 -5.426,-3.125 -8.386,-2.96c-1.809,0.329 -3.289,0.329 -4.44,0l-0.493,0c-3.289,0.493 -5.715,0.041 -7.277,-1.357c-1.562,-1.398 -2.425,-3.248 -2.59,-5.55c-12.004,19.733 -23.351,39.302 -34.039,58.706c-10.689,19.404 -20.555,38.314 -29.6,56.732l0,-0.247c-0.986,1.973 -2.631,2.22 -4.933,0.74c-2.302,-1.48 -4.645,-3.741 -7.03,-6.783c-2.384,-3.042 -4.357,-6.331 -5.919,-9.867c-1.563,-3.535 -1.933,-6.372 -1.11,-8.509c5.097,-13.156 11.593,-27.668 19.486,-43.536c7.893,-15.869 16.362,-32.066 25.406,-48.592c9.044,-16.527 18.417,-32.889 28.119,-49.086c9.702,-16.197 18.993,-31.12 27.873,-44.769c-9.209,6.084 -18.376,13.155 -27.503,21.213c-9.126,8.057 -17.883,16.608 -26.269,25.653c-8.387,9.044 -16.198,18.335 -23.433,27.872c-7.235,9.538 -13.566,18.747 -18.993,27.626c-5.426,8.88 -9.825,17.143 -13.196,24.79c-3.371,7.646 -5.303,14.183 -5.797,19.609c-0.329,2.796 -1.973,3.906 -4.933,3.33c-2.96,-0.575 -6.084,-2.22 -9.373,-4.933c-3.289,-2.713 -6.167,-6.249 -8.633,-10.606c-2.467,-4.358 -3.289,-8.921 -2.467,-13.69c0.493,-3.124 1.48,-6.167 2.96,-9.127c5.92,-12.168 12.868,-24.296 20.843,-36.382c7.975,-12.086 16.814,-23.68 26.516,-34.779c9.702,-11.1 20.103,-21.46 31.203,-31.08c11.099,-9.619 22.734,-18.047 34.902,-25.282c12.169,-7.236 24.707,-13.032 37.616,-17.39c12.909,-4.358 26.105,-6.865 39.589,-7.523l0.247,0c8.88,0 16.526,1.439 22.939,4.316c6.414,2.878 11.552,6.784 15.417,11.717c3.864,4.933 6.454,10.606 7.769,17.019c1.316,6.414 1.398,13.156 0.247,20.227c-0.329,2.302 -0.74,4.275 -1.233,5.92c-0.493,1.644 -0.987,3.288 -1.48,4.933c-3.289,9.208 -7.359,17.472 -12.21,24.789c-4.851,7.318 -10.236,13.813 -16.156,19.486c-5.92,5.674 -12.251,10.566 -18.993,14.677c-6.742,4.111 -13.484,7.564 -20.226,10.36c3.453,2.96 6.577,6.289 9.373,9.989c2.795,3.7 5.221,7.688 7.276,11.963c2.056,4.276 3.577,8.675 4.564,13.197c0.986,4.522 1.397,9.003 1.233,13.443c-2.302,16.279 -8.017,31.202 -17.143,44.769c-9.127,13.566 -20.596,25.2 -34.409,34.902c-13.813,9.702 -29.517,17.185 -47.113,22.447c-17.595,5.262 -35.93,7.811 -55.005,7.646c-10.031,-0.164 -19.486,-1.685 -28.366,-4.563c-8.88,-2.878 -16.485,-6.866 -22.816,-11.963c-6.331,-5.098 -11.1,-11.018 -14.307,-17.76c-3.206,-6.742 -4.152,-13.977 -2.836,-21.706c0.822,-5.262 3.206,-11.018 7.153,-17.266c3.946,-6.249 8.798,-12.169 14.553,-17.76c1.809,0 4.645,0.411 8.51,1.233c3.864,0.823 7.77,1.85 11.716,3.084c3.947,1.233 7.441,2.59 10.483,4.07c3.042,1.48 4.646,2.877 4.81,4.193c-7.564,4.933 -13.155,9.62 -16.773,14.06c-3.618,4.439 -5.837,8.55 -6.66,12.333c-0.657,3.946 -0.082,7.728 1.727,11.346c1.809,3.618 4.481,6.742 8.016,9.373c3.536,2.631 7.853,4.728 12.95,6.29c5.098,1.562 10.607,2.343 16.526,2.343c12.498,0 24.995,-1.973 37.493,-5.92c12.497,-3.946 23.967,-9.619 34.409,-17.019c10.442,-7.4 19.322,-16.321 26.64,-26.763c7.317,-10.442 11.963,-22.241 13.936,-35.396Zm35.273,-162.55c-5.098,0.165 -10.319,0.987 -15.663,2.467c-5.345,1.48 -10.812,3.618 -16.403,6.413c2.137,1.48 4.275,3.33 6.413,5.55c2.138,2.22 3.946,4.646 5.426,7.277c1.48,2.631 2.467,5.385 2.96,8.263c0.494,2.877 0.082,5.632 -1.233,8.263c-7.729,10.853 -15.211,21.747 -22.446,32.682c-7.236,10.936 -14.389,21.994 -21.46,33.176l1.974,-0.986c3.782,-0.987 8.962,-3.001 15.539,-6.043c6.578,-3.043 13.402,-7.112 20.473,-12.21c7.071,-5.098 13.936,-11.182 20.596,-18.253c6.66,-7.071 12.046,-15.211 16.157,-24.42c1.151,-2.795 2.178,-5.632 3.083,-8.509c0.904,-2.878 1.603,-5.797 2.097,-8.757c0.493,-3.289 0.657,-6.495 0.493,-9.62c-0.165,-3.124 -0.905,-5.837 -2.22,-8.139c-1.316,-2.303 -3.248,-4.111 -5.797,-5.427c-2.548,-1.316 -5.878,-1.891 -9.989,-1.727Z" style="fill-rule:nonzero;"/><path d="M907.331,225.979c3.996,-7.428 8.211,-14.857 12.644,-22.285c6.084,-10.195 12.168,-20.308 18.253,-30.339l9.866,-15.787c3.782,-6.248 7.523,-12.62 11.223,-19.116c3.7,-6.495 7.236,-12.867 10.607,-19.116c3.371,-6.249 6.495,-12.292 9.373,-18.13c2.878,-5.837 5.303,-11.223 7.276,-16.156c2.631,-1.315 5.715,-1.274 9.25,0.123c3.536,1.398 6.742,3.577 9.62,6.537c2.878,2.96 5.057,6.372 6.537,10.236c1.479,3.865 1.479,7.606 0,11.223c-1.152,2.467 -3.084,6.003 -5.797,10.607c-2.713,4.604 -5.797,9.743 -9.25,15.416c-3.453,5.673 -7.112,11.593 -10.976,17.76c-3.865,6.166 -7.606,12.045 -11.223,17.636l-3.207,4.933c6.907,-4.275 13.813,-7.605 20.72,-9.989c6.906,-2.385 13.237,-3.166 18.993,-2.344c5.097,0.822 9.249,2.385 12.456,4.687c3.207,2.302 5.632,5.18 7.276,8.633c1.645,3.453 2.549,7.276 2.714,11.47c0.164,4.193 -0.165,8.592 -0.987,13.196c-1.315,7.729 -3.535,15.129 -6.66,22.2c-4.604,10.195 -10.483,20.185 -17.636,29.969c-7.153,9.784 -14.964,18.623 -23.433,26.516c-8.469,7.893 -17.39,14.43 -26.763,19.61c-9.373,5.179 -18.581,8.263 -27.626,9.249c-5.755,-0.164 -10.647,-1.233 -14.676,-3.206c-4.029,-1.973 -7.194,-4.522 -9.496,-7.647l-1.234,4.934c-0.658,1.808 -2.384,2.631 -5.18,2.466c-2.795,-0.164 -5.714,-0.945 -8.756,-2.343c-3.042,-1.398 -5.756,-3.166 -8.14,-5.303c-2.384,-2.138 -3.494,-4.276 -3.33,-6.414c0.819,-3.84 1.776,-7.693 2.872,-11.557c-5.668,6.248 -11.559,11.909 -17.672,16.984c-1.48,1.316 -3.371,2.754 -5.673,4.317c-2.302,1.562 -4.851,3.001 -7.646,4.316c-2.796,1.316 -5.756,2.426 -8.88,3.33c-3.124,0.904 -6.249,1.357 -9.373,1.357c-3.618,-0.165 -6.578,-1.069 -8.88,-2.714c-2.302,-1.644 -4.07,-3.823 -5.303,-6.536c-1.234,-2.713 -1.974,-5.838 -2.22,-9.373c-0.247,-3.536 -0.041,-7.441 0.616,-11.717c0.222,-1.22 0.482,-2.496 0.779,-3.828c-4.986,5.244 -10.343,10.385 -16.072,15.421c-5.591,4.605 -11.017,8.181 -16.279,10.73c-5.262,2.549 -10.113,4.44 -14.553,5.673c-4.44,1.234 -8.428,1.974 -11.963,2.22c-3.536,0.247 -6.29,0.37 -8.263,0.37c-12.827,0 -22.077,-3.7 -27.75,-11.099c-5.673,-7.4 -7.687,-17.513 -6.043,-30.34c1.48,-11.182 5.057,-22.117 10.73,-32.806c5.673,-10.688 13.689,-22.281 24.049,-34.779c3.618,-4.111 8.14,-8.51 13.567,-13.196c5.426,-4.687 11.346,-9.003 17.759,-12.95c6.413,-3.947 13.114,-7.153 20.103,-9.62c6.989,-2.466 13.69,-3.617 20.103,-3.453c6.742,0.164 11.84,2.425 15.293,6.783c3.453,4.358 4.522,10.237 3.207,17.636c-0.494,3.289 -1.522,6.619 -3.084,9.99c-1.562,3.371 -3.741,6.948 -6.536,10.73l0.246,-0.247c-9.866,14.8 -21.5,27.133 -34.902,36.999c-13.402,9.867 -27.75,17.185 -43.043,21.953c-0.493,4.44 -0.205,8.633 0.864,12.58c1.069,3.947 3.494,6.331 7.276,7.153l-0.493,-0.246c3.124,0.822 6.948,0.575 11.47,-0.74c4.522,-1.316 9.455,-3.659 14.799,-7.03c5.345,-3.371 10.977,-7.77 16.897,-13.197c5.92,-5.426 11.839,-11.839 17.759,-19.239c3.125,-3.947 6.126,-8.017 9.003,-12.21c2.878,-4.193 5.633,-8.181 8.264,-11.963l0.064,-0.075l0.306,-0.542c8.797,-15.539 17.883,-30.873 27.256,-46.002l13.319,-20.72c3.783,-6.248 7.524,-12.62 11.223,-19.116c3.7,-6.495 7.236,-12.867 10.607,-19.116c3.371,-6.249 6.495,-12.292 9.373,-18.13c2.878,-5.837 5.303,-11.223 7.277,-16.156c2.631,-1.315 5.714,-1.274 9.249,0.123c3.536,1.398 6.742,3.577 9.62,6.537c2.878,2.96 5.057,6.372 6.537,10.236c1.48,3.865 1.48,7.606 0,11.223c-1.151,2.467 -3.084,6.003 -5.797,10.607c-2.713,4.604 -5.838,9.784 -9.373,15.54c-3.536,5.755 -7.235,11.716 -11.1,17.882c-3.864,6.167 -7.523,11.964 -10.976,17.39l-1.973,3.207c-1.974,3.124 -4.687,7.4 -8.14,12.826c-3.454,5.427 -7.195,11.47 -11.223,18.13c-4.029,6.66 -8.181,13.648 -12.457,20.966c-4.275,7.318 -8.222,14.388 -11.84,21.213c-3.617,6.824 -6.659,13.114 -9.126,18.869c-2.467,5.756 -3.947,10.36 -4.44,13.813c-0.329,0.494 -0.493,0.905 -0.493,1.234c0,0.329 -0.082,0.575 -0.247,0.74l1.727,0c4.769,-1.645 9.455,-4.317 14.059,-8.017c4.605,-3.7 9.045,-7.893 13.32,-12.58c4.276,-4.686 8.387,-9.702 12.333,-15.046c3.947,-5.344 7.729,-10.565 11.347,-15.663l-0.247,0c0.987,-1.48 2.055,-2.919 3.207,-4.316c1.126,-1.368 2.173,-2.696 3.142,-3.985Zm-420.321,0.019c3.999,-7.435 8.217,-14.869 12.654,-22.304c6.084,-10.195 12.169,-20.308 18.253,-30.339l9.866,-15.787c3.783,-6.248 7.524,-12.62 11.224,-19.116c3.699,-6.495 7.235,-12.867 10.606,-19.116c3.371,-6.249 6.495,-12.292 9.373,-18.13c2.878,-5.837 5.303,-11.223 7.277,-16.156c2.631,-1.315 5.714,-1.274 9.249,0.123c3.536,1.398 6.743,3.577 9.62,6.537c2.878,2.96 5.057,6.372 6.537,10.236c1.48,3.865 1.48,7.606 0,11.223c-1.151,2.467 -3.084,6.003 -5.797,10.607c-2.713,4.604 -5.796,9.743 -9.25,15.416c-3.453,5.673 -7.112,11.593 -10.976,17.76c-3.864,6.166 -7.605,12.045 -11.223,17.636l-3.207,4.933c6.907,-4.275 13.813,-7.605 20.72,-9.989c6.906,-2.385 13.237,-3.166 18.993,-2.344c5.097,0.822 9.25,2.385 12.456,4.687c3.207,2.302 5.632,5.18 7.277,8.633c1.644,3.453 2.548,7.276 2.713,11.47c0.164,4.193 -0.165,8.592 -0.987,13.196c-1.315,7.729 -3.535,15.129 -6.66,22.2c-4.604,10.195 -10.483,20.185 -17.636,29.969c-7.153,9.784 -14.964,18.623 -23.433,26.516c-8.468,7.893 -17.389,14.43 -26.762,19.61c-9.374,5.179 -18.582,8.263 -27.626,9.249c-5.756,-0.164 -10.648,-1.233 -14.677,-3.206c-4.029,-1.973 -7.194,-4.522 -9.496,-7.647l-1.234,4.934c-0.657,1.808 -2.384,2.631 -5.179,2.466c-2.796,-0.164 -5.715,-0.945 -8.757,-2.343c-3.042,-1.398 -5.755,-3.166 -8.14,-5.303c-2.384,-2.138 -3.494,-4.276 -3.33,-6.414c0.767,-3.597 1.655,-7.204 2.666,-10.823c-5.444,5.83 -11.266,11.247 -17.465,16.25c-1.48,1.316 -3.33,2.754 -5.55,4.317c-2.22,1.562 -4.687,3.042 -7.4,4.439c-2.713,1.398 -5.632,2.549 -8.757,3.454c-3.124,0.904 -6.331,1.274 -9.619,1.11c-7.894,-0.658 -13.443,-3.454 -16.65,-8.387c-3.207,-4.933 -4.399,-11.1 -3.577,-18.499c-7.399,6.906 -14.881,12.867 -22.446,17.883c-7.564,5.015 -14.799,7.605 -21.706,7.769c-6.249,-0.657 -11.223,-2.425 -14.923,-5.303c-3.7,-2.878 -6.454,-6.29 -8.263,-10.236c-1.809,-3.947 -2.837,-8.181 -3.083,-12.703c-0.247,-4.522 -0.124,-8.757 0.37,-12.703c0.657,-3.618 1.397,-6.578 2.22,-8.88c1.644,-6.084 4.357,-12.744 8.139,-19.98c3.783,-7.235 8.305,-14.471 13.567,-21.706c5.262,-7.235 11.058,-14.224 17.389,-20.966c6.331,-6.742 13.032,-12.744 20.103,-18.006c7.071,-5.263 14.266,-9.456 21.583,-12.58c7.318,-3.125 14.594,-4.687 21.83,-4.687c2.137,0 4.193,0.165 6.166,0.494c1.973,0.329 4.111,0.822 6.413,1.48c3.947,1.315 6.948,3.412 9.004,6.289c2.055,2.878 3.453,6.249 4.193,10.114c0.74,3.864 0.986,7.975 0.74,12.333c-0.247,4.357 -0.864,8.674 -1.85,12.949c-0.165,0.987 -0.781,1.768 -1.85,2.344c-1.069,0.575 -2.343,0.986 -3.823,1.233c-1.48,0.247 -3.001,0.37 -4.564,0.37c-1.562,0 -2.918,-0.247 -4.07,-0.74c2.303,1.48 4.44,3.207 6.414,5.18c1.973,1.973 3.617,4.152 4.933,6.536c1.315,2.385 2.179,4.81 2.59,7.277c0.411,2.466 0.123,4.851 -0.864,7.153c-0.657,1.151 -1.397,2.426 -2.219,3.823c-0.823,1.398 -1.645,2.837 -2.467,4.317c-1.809,3.124 -3.659,6.495 -5.55,10.113c-1.891,3.618 -3.659,7.153 -5.303,10.606c-1.645,3.454 -3.083,6.701 -4.317,9.744c-1.233,3.042 -2.014,5.632 -2.343,7.769c0,0.329 -0.123,0.576 -0.37,0.74c-0.247,0.165 -0.452,0.329 -0.617,0.494l1.727,0c4.933,-1.645 9.702,-4.358 14.306,-8.14c4.605,-3.782 9.086,-8.099 13.443,-12.95c4.358,-4.851 8.551,-10.031 12.58,-15.54c4.029,-5.508 7.852,-10.812 11.47,-15.909c1.315,-1.316 2.302,-2.467 2.96,-3.453c0.658,-0.987 1.315,-2.056 1.973,-3.207c0.12,-0.15 0.26,-0.28 0.419,-0.389Zm190.25,-46.477c6.907,-4.275 13.813,-7.605 20.72,-9.989c6.906,-2.385 13.237,-3.166 18.993,-2.344c5.097,0.822 9.249,2.385 12.456,4.687c3.207,2.302 5.632,5.18 7.277,8.633c1.644,3.453 2.548,7.276 2.713,11.47c0.164,4.193 -0.165,8.592 -0.987,13.196c-1.315,7.729 -3.535,15.129 -6.66,22.2c-4.604,10.195 -10.483,20.185 -17.636,29.969c-7.153,9.784 -14.964,18.623 -23.433,26.516c-8.468,7.893 -17.389,14.43 -26.763,19.61c-9.373,5.179 -18.581,8.263 -27.626,9.249c-5.755,-0.164 -10.647,-1.233 -14.676,-3.206c-4.029,-1.973 -7.194,-4.522 -9.496,-7.647l-1.234,4.934c-0.657,1.808 -2.384,2.631 -5.18,2.466c-2.795,-0.164 -5.714,-0.945 -8.756,-2.343c-3.042,-1.398 -5.755,-3.166 -8.14,-5.303c-2.384,-2.138 -3.494,-4.276 -3.33,-6.414c2.138,-10.03 5.221,-20.144 9.25,-30.339c4.029,-10.195 8.674,-20.391 13.936,-30.586c5.262,-10.195 10.936,-20.391 17.02,-30.586c6.084,-10.195 12.169,-20.308 18.253,-30.339l9.866,-15.787c3.783,-6.248 7.524,-12.62 11.223,-19.116c3.7,-6.495 7.236,-12.867 10.607,-19.116c3.371,-6.249 6.495,-12.292 9.373,-18.13c2.878,-5.837 5.303,-11.223 7.277,-16.156c2.631,-1.315 5.714,-1.274 9.249,0.123c3.536,1.398 6.742,3.577 9.62,6.537c2.878,2.96 5.057,6.372 6.537,10.236c1.48,3.865 1.48,7.606 0,11.223c-1.151,2.467 -3.084,6.003 -5.797,10.607c-2.713,4.604 -5.796,9.743 -9.25,15.416c-3.453,5.673 -7.112,11.593 -10.976,17.76c-3.864,6.166 -7.606,12.045 -11.223,17.636l-3.207,4.933Zm-253.568,29.106c1.645,-0.822 3.577,-0.986 5.797,-0.493c2.22,0.493 4.481,1.398 6.783,2.713c-0.822,-0.822 -1.069,-1.726 -0.74,-2.713c0.165,-0.493 0.206,-1.069 0.123,-1.727c-0.082,-0.657 -0.041,-1.315 0.124,-1.973c0.164,-1.644 0.246,-3.371 0.246,-5.18c0,-1.809 -0.246,-3.494 -0.739,-5.056c-0.494,-1.563 -1.316,-2.837 -2.467,-3.824c-1.151,-0.986 -2.713,-1.562 -4.687,-1.726c-6.084,-0.165 -12.333,2.014 -18.746,6.536c-6.413,4.522 -12.58,10.237 -18.5,17.143c-5.919,6.907 -11.305,14.307 -16.156,22.2c-4.851,7.893 -8.674,15.046 -11.47,21.459c-0.822,1.809 -1.644,4.07 -2.466,6.783c-0.822,2.714 -1.398,5.386 -1.727,8.017c-0.329,1.809 -0.493,3.535 -0.493,5.18c0,1.644 0.37,3.042 1.11,4.193c0.74,1.151 1.85,1.891 3.33,2.22c1.48,0.329 3.535,0.165 6.166,-0.493c2.467,-0.658 5.591,-2.549 9.373,-5.673c3.783,-3.125 7.77,-6.784 11.963,-10.977c4.194,-4.193 8.305,-8.674 12.334,-13.443c4.028,-4.769 7.44,-9.044 10.236,-12.826c2.467,-4.934 4.728,-9.743 6.783,-14.43c2.056,-4.687 3.495,-8.674 4.317,-11.963l-0.494,-3.947Zm98.912,15.787c-3.783,6.084 -7.4,12.292 -10.854,18.623c-3.453,6.331 -6.742,12.703 -9.866,19.116c-0.329,1.315 -0.493,2.302 -0.493,2.96c-0.658,3.946 -0.535,7.605 0.37,10.976c0.904,3.371 3.412,5.221 7.523,5.55c3.618,0.329 7.811,-0.822 12.58,-3.453c4.768,-2.631 9.702,-6.208 14.799,-10.73c5.098,-4.522 10.196,-9.743 15.293,-15.663c5.098,-5.92 9.743,-11.881 13.937,-17.883c4.193,-6.002 7.687,-11.881 10.483,-17.636c2.795,-5.756 4.604,-10.771 5.426,-15.046c0.822,-5.098 -0.74,-7.729 -4.686,-7.894c-3.782,-0.164 -8.017,0.494 -12.703,1.974c-4.687,1.48 -9.456,3.617 -14.307,6.413c-4.851,2.795 -9.661,6.166 -14.429,10.113c-4.769,3.947 -9.127,8.14 -13.073,12.58Zm420.31,0c-3.782,6.084 -7.399,12.292 -10.853,18.623c-3.453,6.331 -6.742,12.703 -9.866,19.116c-0.329,1.315 -0.493,2.302 -0.493,2.96c-0.658,3.946 -0.535,7.605 0.369,10.976c0.905,3.371 3.413,5.221 7.524,5.55c3.617,0.329 7.811,-0.822 12.579,-3.453c4.769,-2.631 9.702,-6.208 14.8,-10.73c5.098,-4.522 10.195,-9.743 15.293,-15.663c5.098,-5.92 9.743,-11.881 13.936,-17.883c4.194,-6.002 7.688,-11.881 10.484,-17.636c2.795,-5.756 4.604,-10.771 5.426,-15.046c0.822,-5.098 -0.74,-7.729 -4.686,-7.894c-3.783,-0.164 -8.017,0.494 -12.704,1.974c-4.686,1.48 -9.455,3.617 -14.306,6.413c-4.851,2.795 -9.661,6.166 -14.43,10.113c-4.768,3.947 -9.126,8.14 -13.073,12.58Zm-294.267,0c-3.782,6.084 -7.399,12.292 -10.853,18.623c-3.453,6.331 -6.742,12.703 -9.866,19.116c-0.329,1.315 -0.493,2.302 -0.493,2.96c-0.658,3.946 -0.535,7.605 0.37,10.976c0.904,3.371 3.412,5.221 7.523,5.55c3.617,0.329 7.811,-0.822 12.58,-3.453c4.768,-2.631 9.702,-6.208 14.799,-10.73c5.098,-4.522 10.196,-9.743 15.293,-15.663c5.098,-5.92 9.743,-11.881 13.937,-17.883c4.193,-6.002 7.687,-11.881 10.483,-17.636c2.795,-5.756 4.604,-10.771 5.426,-15.046c0.822,-5.098 -0.74,-7.729 -4.686,-7.894c-3.783,-0.164 -8.017,0.494 -12.703,1.974c-4.687,1.48 -9.456,3.617 -14.307,6.413c-4.851,2.795 -9.661,6.166 -14.429,10.113c-4.769,3.947 -9.127,8.14 -13.074,12.58Zm171.43,-33.793c-5.92,1.151 -11.757,3.782 -17.513,7.893c-5.755,4.111 -11.182,8.962 -16.28,14.553c-5.097,5.591 -9.784,11.552 -14.059,17.883c-4.276,6.331 -7.811,12.292 -10.607,17.883c11.676,-4.769 22.529,-11.223 32.56,-19.363c10.031,-8.14 18.581,-17.883 25.652,-29.229l0,0.247c0.987,-1.316 1.686,-2.632 2.097,-3.947c0.411,-1.316 0.781,-2.467 1.11,-3.453c0.329,-2.302 -0.658,-3.125 -2.96,-2.467Z" style="fill-rule:nonzero;"/><path d="M1626.59,245.332l-9.373,12.579c-3.946,5.427 -8.14,10.977 -12.58,16.65c-4.44,5.673 -9.044,10.771 -13.813,15.293c-4.768,4.522 -9.702,8.14 -14.799,10.853c-5.098,2.713 -10.36,3.906 -15.787,3.577c-5.92,-0.494 -10.565,-4.276 -13.936,-11.347c-3.371,-7.071 -5.879,-15.786 -7.523,-26.146c-12.333,8.715 -24.625,16.568 -36.876,23.556c-12.251,6.989 -24.214,12.621 -35.889,16.897c-2.467,1.48 -4.851,2.014 -7.153,1.603c-2.303,-0.411 -4.07,-1.398 -5.304,-2.96c-1.233,-1.562 -1.685,-3.494 -1.356,-5.797c0.329,-2.302 1.726,-4.522 4.193,-6.659c12.497,-5.756 25.488,-12.786 38.972,-21.09c13.485,-8.304 27.215,-17.554 41.193,-27.749c-0.329,-6.742 -0.576,-13.443 -0.74,-20.103c-0.165,-6.66 -0.247,-12.868 -0.247,-18.623l-7.893,10.606l-13.073,17.76c-0.822,0.822 -2.056,0.986 -3.7,0.493c-1.644,-0.493 -3.207,-1.315 -4.686,-2.466c-1.48,-1.152 -2.632,-2.467 -3.454,-3.947c-0.822,-1.48 -0.822,-2.796 0,-3.947l-0.493,0.247c2.631,-4.111 5.879,-8.962 9.743,-14.553c3.864,-5.591 7.934,-11.429 12.21,-17.513l18.253,-25.899c1.809,-2.303 4.275,-4.646 7.4,-7.03c3.124,-2.385 6.166,-3.577 9.126,-3.577c4.111,0 7.235,2.878 9.373,8.633c-0.164,21.871 -0.164,40.288 0,55.252c12.333,-10.195 24.173,-20.514 35.519,-30.955c11.347,-10.442 21.871,-20.679 31.573,-30.71l0.247,-0.493c2.137,-1.809 3.905,-2.138 5.303,-0.987c1.398,1.151 2.384,3.042 2.96,5.673c0.575,2.631 0.781,5.509 0.616,8.634c-0.164,3.124 -0.822,5.755 -1.973,7.893c-10.195,9.866 -21.5,20.431 -33.916,31.696c-12.415,11.264 -25.529,22.405 -39.342,33.422c1.151,18.747 3.535,28.202 7.153,28.366c1.48,0.165 3.165,-0.37 5.057,-1.603c1.891,-1.233 3.946,-2.878 6.166,-4.933c2.22,-2.056 4.522,-4.358 6.907,-6.907c2.384,-2.549 4.809,-5.221 7.276,-8.016c1.151,-1.48 2.343,-3.042 3.577,-4.687c1.233,-1.644 2.836,-3.7 4.81,-6.166c1.973,-2.467 4.357,-5.591 7.153,-9.373c2.795,-3.783 6.248,-8.469 10.36,-14.06c0.657,-0.987 1.808,-1.233 3.453,-0.74c1.644,0.493 3.247,1.315 4.81,2.467c1.562,1.151 2.795,2.507 3.7,4.069c0.904,1.563 1.027,2.919 0.37,4.07l-13.567,18.747Z" style="fill-rule:nonzero;"/><path d="M1117.37,235.468c-10.839,-11.138 -19.593,-23.304 -25.771,-36.278c-7.207,-15.135 -11.005,-31.291 -10.554,-48.089c0.443,-16.533 4.833,-32.296 12.652,-46.841c7.303,-13.586 17.538,-26.106 30.228,-37.164c0.563,-0.517 1.44,-0.481 1.958,0.082c0.518,0.563 0.481,1.44 -0.082,1.958c-11.705,11.362 -20.991,23.988 -27.352,37.517c-6.584,14.001 -9.956,28.957 -9.541,44.448c0.412,15.349 4.656,29.905 11.97,43.362c6.951,12.79 16.745,24.513 28.729,34.958c2.034,1.871 2.656,4.826 1.549,7.358c-4.078,9.955 -9.863,19.39 -15.593,27.418c-10.418,14.599 -20.89,24.441 -21.149,24.629l0.842,-0.672c-1.148,1.104 -1.824,2.464 -2.091,3.86c-0.236,1.242 0.084,2.514 0.714,3.704c0.773,1.462 2.154,2.508 3.689,3.296c1.669,0.857 3.64,1.2 5.669,1.152c19.371,-0.399 36.872,-3.877 52.218,-8.669c19.918,-6.218 36.142,-14.804 47.913,-22.29c2.567,-1.571 5.668,-2.013 8.572,-1.223c10.815,2.778 22.065,4.848 33.664,6.259c11.075,1.347 22.474,2.066 34.149,1.976c45.517,-0.256 87.129,-11.97 119.282,-31.251c37.952,-22.759 62.713,-56.12 62.578,-93.867c-0.103,-37.629 -25.013,-70.729 -63.001,-93.156c-32.105,-18.954 -73.594,-30.242 -118.859,-30.16l-0.025,0c0,0 -159.536,0.316 -365.649,-0.03c-114.005,-0.191 -242.258,-0.657 -365.648,-1.198c-104.947,-0.461 -206.371,-0.927 -292.516,-1.608c-82.434,-0.652 -150.864,-1.558 -195.013,-2.013c-6.05,-0.113 -12.004,0.921 -17.53,3.089c-5.574,2.187 -10.748,5.412 -15.145,9.646c-4.469,4.251 -8.053,9.259 -10.507,14.789c-2.481,5.593 -3.931,11.651 -4.087,17.886c0,0 -2.292,89.485 -2.292,89.485c-0.383,13.853 4.859,26.545 13.686,35.875c9.034,9.547 21.698,15.642 35.875,16.033l28.132,0.781c0.764,0 1.385,0.621 1.385,1.386c0,0.764 -0.621,1.385 -1.385,1.385c0,0 -28.132,0.781 -28.132,0.781c-15.697,0.434 -30.027,-5.64 -40.599,-15.643c-10.789,-10.209 -17.547,-24.577 -17.99,-40.598c0,0 -2.292,-89.485 -2.292,-89.485c-0.202,-8.11 1.284,-16.074 4.145,-23.5c2.887,-7.491 7.298,-14.369 12.938,-20.297c5.717,-5.938 12.53,-10.564 19.941,-13.799c7.459,-3.255 15.563,-4.987 23.857,-5.143c44.148,-0.455 112.577,-1.36 195.011,-2.012c86.146,-0.682 187.57,-1.148 292.518,-1.609c123.39,-0.541 251.644,-1.007 365.65,-1.198c206.112,-0.346 365.647,-0.03 365.647,-0.03l0.025,0c62.172,0.113 117.813,19.758 155.511,50.431c32.868,26.744 52.296,61.828 52.183,99.912c-0.135,37.992 -19.645,72.923 -52.615,99.378c-37.721,30.268 -93.211,49.489 -155.079,49.163c-12.717,-0.098 -25.131,-0.994 -37.16,-2.727c-11.027,-1.588 -21.726,-3.848 -32.061,-6.644c-12.815,7.188 -29.533,14.944 -49.498,20.358c-17.072,4.63 -36.484,7.606 -57.797,7.167c-5.032,-0.119 -9.825,-1.397 -13.859,-3.714c-4.561,-2.621 -8.266,-6.354 -10.411,-10.915c-2.227,-4.734 -2.811,-9.788 -1.664,-14.568c1.067,-4.44 3.434,-8.708 7.286,-12.076c0.265,-0.243 0.546,-0.467 0.841,-0.672c0.227,-0.149 9.229,-8.317 18.642,-20.271c4.679,-5.942 9.459,-12.786 13.298,-20.112Z"/><path d="M1454.41,27.583l253.328,-2.175c11.868,-0.189 22.698,4.381 30.624,12.009c8.077,7.775 13.362,18.53 13.631,30.624c0,0 2.685,88.784 2.685,88.784c0.435,13.164 -4.427,25.26 -12.756,34.184c-8.586,9.202 -20.613,15.203 -34.184,15.693c0,0 -38.166,1.38 -38.166,1.38c-1.555,0 -2.818,1.263 -2.818,2.818c0,1.555 1.263,2.818 2.818,2.818l38.166,1.381c16.311,0.588 31.23,-5.664 42.289,-15.985c11.332,-10.574 18.369,-25.573 18.921,-42.289c0,0 2.685,-88.784 2.685,-88.784c0.396,-17.778 -6.617,-33.976 -18.045,-45.85c-11.57,-12.021 -27.85,-19.381 -45.85,-19.667c0,0 -253.328,-2.175 -253.328,-2.175c-7.515,0 -13.617,6.101 -13.617,13.617c0,7.516 6.102,13.617 13.617,13.617Z"/></g></svg>